<svg width="287" height="40" viewBox="0 0 287 40" fill="none" xmlns="http://www.w3.org/2000/svg">
<rect x="76" width="40" height="40" rx="20" fill="white"/>
<path d="M103.5 10.5H88.5C87.0938 10.5 86 11.6328 86 13V24.25C86 25.6562 87.0938 26.75 88.5 26.75H92.25V30.0312C92.25 30.3438 92.4453 30.5 92.7188 30.5C92.7969 30.5 92.875 30.5 92.9922 30.4219L97.875 26.75H103.5C104.867 26.75 106 25.6562 106 24.25V13C106 11.6328 104.867 10.5 103.5 10.5ZM104.125 24.25C104.125 24.6016 103.812 24.875 103.5 24.875H97.25L96.7422 25.2656L94.125 27.2188V24.875H88.5C88.1484 24.875 87.875 24.6016 87.875 24.25V13C87.875 12.6875 88.1484 12.375 88.5 12.375H103.5C103.812 12.375 104.125 12.6875 104.125 13V24.25Z" fill="#191919"/>
<path d="M126.666 19.2646H127.678C128.188 19.2601 128.591 19.1279 128.888 18.8682C129.188 18.6084 129.339 18.2324 129.339 17.7402C129.339 17.2663 129.214 16.8994 128.963 16.6396C128.717 16.3753 128.339 16.2432 127.828 16.2432C127.382 16.2432 127.015 16.373 126.728 16.6328C126.44 16.888 126.297 17.223 126.297 17.6377H124.636C124.636 17.1273 124.77 16.6624 125.039 16.2432C125.312 15.8239 125.691 15.498 126.174 15.2656C126.661 15.0286 127.206 14.9102 127.808 14.9102C128.801 14.9102 129.58 15.1608 130.146 15.6621C130.715 16.1589 131 16.8516 131 17.7402C131 18.1868 130.856 18.6084 130.569 19.0049C130.287 19.3968 129.92 19.693 129.469 19.8936C130.016 20.0804 130.43 20.3743 130.713 20.7754C131 21.1764 131.144 21.6549 131.144 22.2109C131.144 23.1042 130.836 23.8151 130.221 24.3438C129.61 24.8724 128.806 25.1367 127.808 25.1367C126.851 25.1367 126.067 24.8815 125.456 24.3711C124.845 23.8607 124.54 23.1816 124.54 22.334H126.201C126.201 22.7715 126.347 23.127 126.639 23.4004C126.935 23.6738 127.331 23.8105 127.828 23.8105C128.343 23.8105 128.749 23.6738 129.045 23.4004C129.341 23.127 129.489 22.7305 129.489 22.2109C129.489 21.6868 129.334 21.2835 129.024 21.001C128.715 20.7184 128.254 20.5771 127.644 20.5771H126.666V19.2646ZM139.395 25H132.702V23.8584L136.018 20.2422C136.496 19.709 136.836 19.2646 137.036 18.9092C137.241 18.5492 137.344 18.1891 137.344 17.8291C137.344 17.3551 137.209 16.9723 136.94 16.6807C136.676 16.389 136.318 16.2432 135.867 16.2432C135.329 16.2432 134.912 16.4072 134.616 16.7354C134.32 17.0635 134.172 17.5124 134.172 18.082H132.511C132.511 17.4759 132.647 16.9313 132.921 16.4482C133.199 15.9606 133.593 15.5824 134.104 15.3135C134.618 15.0446 135.211 14.9102 135.881 14.9102C136.847 14.9102 137.608 15.154 138.164 15.6416C138.725 16.1247 139.005 16.7946 139.005 17.6514C139.005 18.1481 138.864 18.6699 138.581 19.2168C138.303 19.7591 137.845 20.3766 137.207 21.0693L134.773 23.6738H139.395V25ZM147.29 23.8105C147.705 23.8105 148.049 23.6898 148.322 23.4482C148.596 23.2067 148.742 22.9082 148.76 22.5527H150.325C150.307 23.013 150.163 23.4437 149.895 23.8447C149.626 24.2412 149.261 24.5557 148.801 24.7881C148.34 25.0205 147.844 25.1367 147.311 25.1367C146.276 25.1367 145.456 24.8018 144.85 24.1318C144.243 23.4619 143.94 22.5368 143.94 21.3564V21.1855C143.94 20.0599 144.241 19.1598 144.843 18.4854C145.444 17.8063 146.265 17.4668 147.304 17.4668C148.183 17.4668 148.899 17.7243 149.45 18.2393C150.006 18.7497 150.298 19.4219 150.325 20.2559H148.76C148.742 19.832 148.596 19.4834 148.322 19.21C148.053 18.9365 147.709 18.7998 147.29 18.7998C146.752 18.7998 146.338 18.9958 146.046 19.3877C145.754 19.7751 145.606 20.3652 145.602 21.1582V21.4248C145.602 22.2269 145.745 22.8262 146.032 23.2227C146.324 23.6146 146.743 23.8105 147.29 23.8105ZM151.269 21.2334C151.269 20.5088 151.412 19.8571 151.699 19.2783C151.986 18.695 152.39 18.2484 152.909 17.9385C153.429 17.624 154.026 17.4668 154.7 17.4668C155.698 17.4668 156.507 17.7881 157.127 18.4307C157.751 19.0732 158.089 19.9255 158.139 20.9873L158.146 21.377C158.146 22.1061 158.004 22.7578 157.722 23.332C157.444 23.9062 157.043 24.3506 156.519 24.665C155.999 24.9795 155.397 25.1367 154.714 25.1367C153.67 25.1367 152.834 24.7904 152.205 24.0977C151.581 23.4004 151.269 22.473 151.269 21.3154V21.2334ZM152.93 21.377C152.93 22.138 153.087 22.735 153.401 23.168C153.716 23.5964 154.153 23.8105 154.714 23.8105C155.274 23.8105 155.71 23.5918 156.02 23.1543C156.334 22.7168 156.491 22.0765 156.491 21.2334C156.491 20.486 156.329 19.8936 156.006 19.4561C155.687 19.0186 155.252 18.7998 154.7 18.7998C154.158 18.7998 153.727 19.0163 153.408 19.4492C153.089 19.8776 152.93 20.5202 152.93 21.377ZM161.112 17.6035L161.16 18.376C161.68 17.7699 162.391 17.4668 163.293 17.4668C164.282 17.4668 164.959 17.8451 165.323 18.6016C165.861 17.8451 166.618 17.4668 167.593 17.4668C168.409 17.4668 169.015 17.6924 169.411 18.1436C169.812 18.5947 170.017 19.2601 170.026 20.1396V25H168.365V20.1875C168.365 19.7181 168.263 19.374 168.058 19.1553C167.853 18.9365 167.513 18.8271 167.039 18.8271C166.661 18.8271 166.351 18.9297 166.109 19.1348C165.872 19.3353 165.706 19.5996 165.61 19.9277L165.617 25H163.956V20.1328C163.933 19.2624 163.489 18.8271 162.623 18.8271C161.958 18.8271 161.486 19.0983 161.208 19.6406V25H159.547V17.6035H161.112ZM173.294 17.6035L173.342 18.376C173.861 17.7699 174.572 17.4668 175.475 17.4668C176.464 17.4668 177.14 17.8451 177.505 18.6016C178.043 17.8451 178.799 17.4668 179.774 17.4668C180.59 17.4668 181.196 17.6924 181.593 18.1436C181.994 18.5947 182.199 19.2601 182.208 20.1396V25H180.547V20.1875C180.547 19.7181 180.444 19.374 180.239 19.1553C180.034 18.9365 179.695 18.8271 179.221 18.8271C178.842 18.8271 178.533 18.9297 178.291 19.1348C178.054 19.3353 177.888 19.5996 177.792 19.9277L177.799 25H176.138V20.1328C176.115 19.2624 175.671 18.8271 174.805 18.8271C174.139 18.8271 173.668 19.0983 173.39 19.6406V25H171.729V17.6035H173.294ZM187.171 25.1367C186.118 25.1367 185.264 24.8063 184.607 24.1455C183.956 23.4801 183.63 22.596 183.63 21.4932V21.2881C183.63 20.5498 183.771 19.8913 184.054 19.3125C184.341 18.7292 184.742 18.2757 185.257 17.9521C185.772 17.6286 186.346 17.4668 186.979 17.4668C187.987 17.4668 188.764 17.7881 189.311 18.4307C189.862 19.0732 190.138 19.9824 190.138 21.1582V21.8281H185.305C185.355 22.4388 185.558 22.9219 185.913 23.2773C186.273 23.6328 186.724 23.8105 187.267 23.8105C188.028 23.8105 188.647 23.5029 189.126 22.8877L190.021 23.7422C189.725 24.1842 189.329 24.5283 188.832 24.7744C188.34 25.016 187.786 25.1367 187.171 25.1367ZM186.973 18.7998C186.517 18.7998 186.148 18.9593 185.865 19.2783C185.587 19.5973 185.41 20.0417 185.332 20.6113H188.497V20.4883C188.461 19.9323 188.312 19.513 188.053 19.2305C187.793 18.9434 187.433 18.7998 186.973 18.7998ZM192.975 17.6035L193.022 18.458C193.569 17.7972 194.287 17.4668 195.176 17.4668C196.716 17.4668 197.5 18.3486 197.527 20.1123V25H195.866V20.208C195.866 19.7386 195.764 19.3923 195.559 19.1689C195.358 18.9411 195.028 18.8271 194.567 18.8271C193.897 18.8271 193.398 19.1302 193.07 19.7363V25H191.409V17.6035H192.975ZM201.308 15.8057V17.6035H202.613V18.834H201.308V22.9629C201.308 23.2454 201.362 23.4505 201.472 23.5781C201.586 23.7012 201.786 23.7627 202.073 23.7627C202.265 23.7627 202.458 23.7399 202.654 23.6943V24.9795C202.276 25.0843 201.911 25.1367 201.561 25.1367C200.285 25.1367 199.646 24.4326 199.646 23.0244V18.834H198.43V17.6035H199.646V15.8057H201.308ZM208.034 22.9902C208.034 22.694 207.911 22.4684 207.665 22.3135C207.424 22.1585 207.02 22.0218 206.455 21.9033C205.89 21.7848 205.418 21.6344 205.04 21.4521C204.211 21.0511 203.796 20.4701 203.796 19.709C203.796 19.071 204.065 18.5378 204.603 18.1094C205.14 17.681 205.824 17.4668 206.653 17.4668C207.537 17.4668 208.251 17.6855 208.793 18.123C209.34 18.5605 209.613 19.1279 209.613 19.8252H207.952C207.952 19.5062 207.834 19.2419 207.597 19.0322C207.36 18.818 207.045 18.7109 206.653 18.7109C206.289 18.7109 205.99 18.7952 205.758 18.9639C205.53 19.1325 205.416 19.3581 205.416 19.6406C205.416 19.8958 205.523 20.0941 205.737 20.2354C205.951 20.3766 206.384 20.5202 207.036 20.666C207.688 20.8073 208.198 20.9782 208.567 21.1787C208.941 21.3747 209.217 21.6117 209.395 21.8896C209.577 22.1676 209.668 22.5049 209.668 22.9014C209.668 23.5667 209.392 24.1068 208.841 24.5215C208.289 24.9316 207.567 25.1367 206.674 25.1367C206.068 25.1367 205.528 25.0273 205.054 24.8086C204.58 24.5898 204.211 24.2891 203.946 23.9062C203.682 23.5234 203.55 23.111 203.55 22.6689H205.163C205.186 23.0609 205.334 23.3639 205.607 23.5781C205.881 23.7878 206.243 23.8926 206.694 23.8926C207.132 23.8926 207.465 23.8105 207.692 23.6465C207.92 23.4779 208.034 23.2591 208.034 22.9902Z" fill="#191919"/>
</svg>
