<svg width="287" height="40" viewBox="0 0 287 40" fill="none" xmlns="http://www.w3.org/2000/svg">
<rect x="80.5" width="40" height="40" rx="20" fill="white"/>
<path d="M100.5 10.8125C95.1484 10.8125 90.8125 15.1484 90.8125 20.5C90.8125 25.8516 95.1484 30.1875 100.5 30.1875C105.852 30.1875 110.188 25.8516 110.188 20.5C110.188 15.1484 105.852 10.8125 100.5 10.8125ZM100.5 28.3125C96.1641 28.3125 92.6875 24.8359 92.6875 20.5C92.6875 16.2031 96.1641 12.6875 100.5 12.6875C104.797 12.6875 108.312 16.2031 108.312 20.5C108.312 24.8359 104.797 28.3125 100.5 28.3125ZM97.375 19.875C98.0391 19.875 98.625 19.3281 98.625 18.625C98.625 17.9609 98.0391 17.375 97.375 17.375C96.6719 17.375 96.125 17.9609 96.125 18.625C96.125 19.3281 96.6719 19.875 97.375 19.875ZM103.625 19.875C104.289 19.875 104.875 19.3281 104.875 18.625C104.875 17.9609 104.289 17.375 103.625 17.375C102.922 17.375 102.375 17.9609 102.375 18.625C102.375 19.3281 102.922 19.875 103.625 19.875ZM103.781 22.7266C102.961 23.7031 101.75 24.25 100.5 24.25C99.2109 24.25 98 23.7031 97.2188 22.7266C96.8672 22.3359 96.2812 22.2969 95.8906 22.6094C95.5 22.9219 95.4219 23.5469 95.7734 23.9375C96.9453 25.3438 98.6641 26.125 100.5 26.125C102.297 26.125 104.016 25.3438 105.188 23.9375C105.539 23.5469 105.5 22.9219 105.07 22.6094C104.68 22.2969 104.094 22.3359 103.781 22.7266Z" fill="#191919"/>
<path d="M134.864 21.4521H136.102V22.7852H134.864V25H133.203V22.7852H128.903L128.855 21.7734L133.148 15.0469H134.864V21.4521ZM130.599 21.4521H133.203V17.2959L133.08 17.5146L130.599 21.4521ZM141.7 25H140.046V17.0088L137.605 17.8428V16.4414L141.488 15.0127H141.7V25ZM152.624 19.1211C152.405 19.0846 152.18 19.0664 151.947 19.0664C151.186 19.0664 150.674 19.3581 150.409 19.9414V25H148.748V17.6035H150.334L150.375 18.4307C150.776 17.7881 151.332 17.4668 152.043 17.4668C152.28 17.4668 152.476 17.4987 152.631 17.5625L152.624 19.1211ZM156.794 25.1367C155.741 25.1367 154.887 24.8063 154.23 24.1455C153.579 23.4801 153.253 22.596 153.253 21.4932V21.2881C153.253 20.5498 153.394 19.8913 153.677 19.3125C153.964 18.7292 154.365 18.2757 154.88 17.9521C155.395 17.6286 155.969 17.4668 156.603 17.4668C157.61 17.4668 158.387 17.7881 158.934 18.4307C159.485 19.0732 159.761 19.9824 159.761 21.1582V21.8281H154.928C154.978 22.4388 155.181 22.9219 155.536 23.2773C155.896 23.6328 156.347 23.8105 156.89 23.8105C157.651 23.8105 158.271 23.5029 158.749 22.8877L159.645 23.7422C159.348 24.1842 158.952 24.5283 158.455 24.7744C157.963 25.016 157.409 25.1367 156.794 25.1367ZM156.596 18.7998C156.14 18.7998 155.771 18.9593 155.488 19.2783C155.21 19.5973 155.033 20.0417 154.955 20.6113H158.12V20.4883C158.084 19.9323 157.936 19.513 157.676 19.2305C157.416 18.9434 157.056 18.7998 156.596 18.7998ZM165.476 25C165.403 24.8587 165.339 24.6286 165.284 24.3096C164.756 24.861 164.108 25.1367 163.343 25.1367C162.6 25.1367 161.994 24.9248 161.524 24.501C161.055 24.0771 160.82 23.5531 160.82 22.9287C160.82 22.1403 161.112 21.5365 161.695 21.1172C162.283 20.6934 163.122 20.4814 164.211 20.4814H165.229V19.9961C165.229 19.6133 165.122 19.3079 164.908 19.0801C164.694 18.8477 164.368 18.7314 163.931 18.7314C163.552 18.7314 163.243 18.8271 163.001 19.0186C162.759 19.2054 162.639 19.4447 162.639 19.7363H160.978C160.978 19.3307 161.112 18.9525 161.381 18.6016C161.65 18.2461 162.014 17.9681 162.475 17.7676C162.939 17.5671 163.457 17.4668 164.026 17.4668C164.892 17.4668 165.583 17.6855 166.098 18.123C166.613 18.556 166.877 19.1667 166.891 19.9551V23.291C166.891 23.9564 166.984 24.4873 167.171 24.8838V25H165.476ZM163.65 23.8037C163.979 23.8037 164.286 23.724 164.573 23.5645C164.865 23.4049 165.084 23.1908 165.229 22.9219V21.5273H164.334C163.719 21.5273 163.256 21.6344 162.946 21.8486C162.636 22.0628 162.481 22.3659 162.481 22.7578C162.481 23.0768 162.586 23.332 162.796 23.5234C163.01 23.7103 163.295 23.8037 163.65 23.8037ZM171.669 23.8105C172.084 23.8105 172.428 23.6898 172.701 23.4482C172.975 23.2067 173.12 22.9082 173.139 22.5527H174.704C174.686 23.013 174.542 23.4437 174.273 23.8447C174.005 24.2412 173.64 24.5557 173.18 24.7881C172.719 25.0205 172.223 25.1367 171.689 25.1367C170.655 25.1367 169.835 24.8018 169.229 24.1318C168.622 23.4619 168.319 22.5368 168.319 21.3564V21.1855C168.319 20.0599 168.62 19.1598 169.222 18.4854C169.823 17.8063 170.644 17.4668 171.683 17.4668C172.562 17.4668 173.278 17.7243 173.829 18.2393C174.385 18.7497 174.677 19.4219 174.704 20.2559H173.139C173.12 19.832 172.975 19.4834 172.701 19.21C172.432 18.9365 172.088 18.7998 171.669 18.7998C171.131 18.7998 170.716 18.9958 170.425 19.3877C170.133 19.7751 169.985 20.3652 169.98 21.1582V21.4248C169.98 22.2269 170.124 22.8262 170.411 23.2227C170.703 23.6146 171.122 23.8105 171.669 23.8105ZM178.04 15.8057V17.6035H179.346V18.834H178.04V22.9629C178.04 23.2454 178.095 23.4505 178.204 23.5781C178.318 23.7012 178.519 23.7627 178.806 23.7627C178.997 23.7627 179.191 23.7399 179.387 23.6943V24.9795C179.008 25.0843 178.644 25.1367 178.293 25.1367C177.017 25.1367 176.379 24.4326 176.379 23.0244V18.834H175.162V17.6035H176.379V15.8057H178.04ZM182.388 25H180.727V17.6035H182.388V25ZM180.624 15.6826C180.624 15.4274 180.704 15.2155 180.863 15.0469C181.027 14.8783 181.26 14.7939 181.561 14.7939C181.861 14.7939 182.094 14.8783 182.258 15.0469C182.422 15.2155 182.504 15.4274 182.504 15.6826C182.504 15.9333 182.422 16.1429 182.258 16.3115C182.094 16.4756 181.861 16.5576 181.561 16.5576C181.26 16.5576 181.027 16.4756 180.863 16.3115C180.704 16.1429 180.624 15.9333 180.624 15.6826ZM183.892 21.2334C183.892 20.5088 184.035 19.8571 184.322 19.2783C184.609 18.695 185.013 18.2484 185.532 17.9385C186.052 17.624 186.649 17.4668 187.323 17.4668C188.321 17.4668 189.13 17.7881 189.75 18.4307C190.374 19.0732 190.712 19.9255 190.762 20.9873L190.769 21.377C190.769 22.1061 190.627 22.7578 190.345 23.332C190.067 23.9062 189.666 24.3506 189.142 24.665C188.622 24.9795 188.021 25.1367 187.337 25.1367C186.293 25.1367 185.457 24.7904 184.828 24.0977C184.204 23.4004 183.892 22.473 183.892 21.3154V21.2334ZM185.553 21.377C185.553 22.138 185.71 22.735 186.024 23.168C186.339 23.5964 186.776 23.8105 187.337 23.8105C187.897 23.8105 188.333 23.5918 188.643 23.1543C188.957 22.7168 189.114 22.0765 189.114 21.2334C189.114 20.486 188.952 19.8936 188.629 19.4561C188.31 19.0186 187.875 18.7998 187.323 18.7998C186.781 18.7998 186.35 19.0163 186.031 19.4492C185.712 19.8776 185.553 20.5202 185.553 21.377ZM193.715 17.6035L193.763 18.458C194.31 17.7972 195.027 17.4668 195.916 17.4668C197.456 17.4668 198.24 18.3486 198.268 20.1123V25H196.606V20.208C196.606 19.7386 196.504 19.3923 196.299 19.1689C196.098 18.9411 195.768 18.8271 195.308 18.8271C194.638 18.8271 194.139 19.1302 193.811 19.7363V25H192.149V17.6035H193.715ZM204.112 22.9902C204.112 22.694 203.989 22.4684 203.743 22.3135C203.502 22.1585 203.098 22.0218 202.533 21.9033C201.968 21.7848 201.496 21.6344 201.118 21.4521C200.289 21.0511 199.874 20.4701 199.874 19.709C199.874 19.071 200.143 18.5378 200.681 18.1094C201.218 17.681 201.902 17.4668 202.731 17.4668C203.616 17.4668 204.329 17.6855 204.871 18.123C205.418 18.5605 205.691 19.1279 205.691 19.8252H204.03C204.03 19.5062 203.912 19.2419 203.675 19.0322C203.438 18.818 203.123 18.7109 202.731 18.7109C202.367 18.7109 202.068 18.7952 201.836 18.9639C201.608 19.1325 201.494 19.3581 201.494 19.6406C201.494 19.8958 201.601 20.0941 201.815 20.2354C202.03 20.3766 202.463 20.5202 203.114 20.666C203.766 20.8073 204.276 20.9782 204.646 21.1787C205.019 21.3747 205.295 21.6117 205.473 21.8896C205.655 22.1676 205.746 22.5049 205.746 22.9014C205.746 23.5667 205.47 24.1068 204.919 24.5215C204.368 24.9316 203.645 25.1367 202.752 25.1367C202.146 25.1367 201.606 25.0273 201.132 24.8086C200.658 24.5898 200.289 24.2891 200.024 23.9062C199.76 23.5234 199.628 23.111 199.628 22.6689H201.241C201.264 23.0609 201.412 23.3639 201.686 23.5781C201.959 23.7878 202.321 23.8926 202.772 23.8926C203.21 23.8926 203.543 23.8105 203.771 23.6465C203.998 23.4779 204.112 23.2591 204.112 22.9902Z" fill="#191919"/>
</svg>
