<svg width="41" height="40" viewBox="0 0 41 40" fill="none" xmlns="http://www.w3.org/2000/svg">
<rect x="0.5" width="40" height="40" rx="20" fill="white"/>
<path d="M29.7578 12.7266L28.2734 11.2422C27.8047 10.7734 27.1406 10.5 26.5156 10.5C25.8906 10.5 25.2266 10.7734 24.7578 11.2422L21.8281 14.1719L20.5 15.5L10.9688 25.0312L10.5 29.4844C10.4219 30.0312 10.8516 30.5 11.3984 30.5C11.4375 30.5 11.4766 30.5 11.5156 30.5L15.9688 30.0312L25.5 20.5L26.8281 19.1719L29.7578 16.2422C30.7344 15.2656 30.7344 13.7031 29.7578 12.7266ZM15.1094 28.2344L12.4922 28.5078L12.7656 25.8906L21.7891 16.8281L23 15.6172L25.3828 18L24.1719 19.2109L15.1094 28.2344ZM28.4297 14.9141L26.7109 16.6719L24.3281 14.2891L26.0859 12.5703C26.2422 12.4141 26.4375 12.375 26.5156 12.375C26.5938 12.375 26.7891 12.4141 26.9453 12.5703L28.4297 14.0547C28.6641 14.2891 28.6641 14.6797 28.4297 14.9141Z" fill="#191919"/>
</svg>
