<svg width="26" height="18" viewBox="0 0 26 18" fill="none" xmlns="http://www.w3.org/2000/svg">
<rect width="26" height="18" rx="9" fill="#E72511"/>
<path d="M10.6934 13H9V6.47266L6.97852 7.09961V5.72266L10.5117 4.45703H10.6934V13ZM19.3184 13H13.4707V11.8398L16.2305 8.89844C16.6094 8.48438 16.8887 8.12305 17.0684 7.81445C17.252 7.50586 17.3438 7.21289 17.3438 6.93555C17.3438 6.55664 17.248 6.25977 17.0566 6.04492C16.8652 5.82617 16.5918 5.7168 16.2363 5.7168C15.8535 5.7168 15.5508 5.84961 15.3281 6.11523C15.1094 6.37695 15 6.72266 15 7.15234H13.3008C13.3008 6.63281 13.4238 6.1582 13.6699 5.72852C13.9199 5.29883 14.2715 4.96289 14.7246 4.7207C15.1777 4.47461 15.6914 4.35156 16.2656 4.35156C17.1445 4.35156 17.8262 4.5625 18.3105 4.98438C18.7988 5.40625 19.043 6.00195 19.043 6.77148C19.043 7.19336 18.9336 7.62305 18.7148 8.06055C18.4961 8.49805 18.1211 9.00781 17.5898 9.58984L15.6504 11.6348H19.3184V13Z" fill="white"/>
</svg>
