<svg width="33" height="18" viewBox="0 0 33 18" fill="none" xmlns="http://www.w3.org/2000/svg">
<rect width="33" height="18" rx="9" fill="#E72511"/>
<path d="M10.541 9.58984C10.0996 10.0234 9.58398 10.2402 8.99414 10.2402C8.24023 10.2402 7.63672 9.98242 7.18359 9.4668C6.73047 8.94727 6.50391 8.24805 6.50391 7.36914C6.50391 6.81055 6.625 6.29883 6.86719 5.83398C7.11328 5.36523 7.45508 5.00195 7.89258 4.74414C8.33008 4.48242 8.82227 4.35156 9.36914 4.35156C9.93164 4.35156 10.4316 4.49219 10.8691 4.77344C11.3066 5.05469 11.6465 5.45898 11.8887 5.98633C12.1309 6.51367 12.2539 7.11719 12.2578 7.79688V8.42383C12.2578 9.8457 11.9043 10.9629 11.1973 11.7754C10.4902 12.5879 9.48828 13.0215 8.19141 13.0762L7.77539 13.082V11.6699L8.15039 11.6641C9.62305 11.5977 10.4199 10.9062 10.541 9.58984ZM9.41016 8.94531C9.68359 8.94531 9.91797 8.875 10.1133 8.73438C10.3125 8.59375 10.4629 8.42383 10.5645 8.22461V7.52734C10.5645 6.95312 10.4551 6.50781 10.2363 6.19141C10.0176 5.875 9.72461 5.7168 9.35742 5.7168C9.01758 5.7168 8.73828 5.87305 8.51953 6.18555C8.30078 6.49414 8.19141 6.88281 8.19141 7.35156C8.19141 7.81641 8.29688 8.19922 8.50781 8.5C8.72266 8.79688 9.02344 8.94531 9.41016 8.94531ZM17.4316 9.58984C16.9902 10.0234 16.4746 10.2402 15.8848 10.2402C15.1309 10.2402 14.5273 9.98242 14.0742 9.4668C13.6211 8.94727 13.3945 8.24805 13.3945 7.36914C13.3945 6.81055 13.5156 6.29883 13.7578 5.83398C14.0039 5.36523 14.3457 5.00195 14.7832 4.74414C15.2207 4.48242 15.7129 4.35156 16.2598 4.35156C16.8223 4.35156 17.3223 4.49219 17.7598 4.77344C18.1973 5.05469 18.5371 5.45898 18.7793 5.98633C19.0215 6.51367 19.1445 7.11719 19.1484 7.79688V8.42383C19.1484 9.8457 18.7949 10.9629 18.0879 11.7754C17.3809 12.5879 16.3789 13.0215 15.082 13.0762L14.666 13.082V11.6699L15.041 11.6641C16.5137 11.5977 17.3105 10.9062 17.4316 9.58984ZM16.3008 8.94531C16.5742 8.94531 16.8086 8.875 17.0039 8.73438C17.2031 8.59375 17.3535 8.42383 17.4551 8.22461V7.52734C17.4551 6.95312 17.3457 6.50781 17.127 6.19141C16.9082 5.875 16.6152 5.7168 16.248 5.7168C15.9082 5.7168 15.6289 5.87305 15.4102 6.18555C15.1914 6.49414 15.082 6.88281 15.082 7.35156C15.082 7.81641 15.1875 8.19922 15.3984 8.5C15.6133 8.79688 15.9141 8.94531 16.3008 8.94531ZM23.8477 8.22461H25.9629V9.75391H23.8477V12.1445H22.2363V9.75391H20.1152V8.22461H22.2363V5.93359H23.8477V8.22461Z" fill="white"/>
</svg>
