<svg width="41" height="40" viewBox="0 0 41 40" fill="none" xmlns="http://www.w3.org/2000/svg">
<rect x="0.5" width="40" height="40" rx="20" fill="white"/>
<path d="M28.625 13.625H25.3828L24.0547 11.4375C23.7422 10.9297 23.0391 10.5 22.4531 10.5H18.5078C17.9219 10.5 17.2188 10.9297 16.9062 11.4375L15.5781 13.625H12.375C12.0234 13.625 11.75 13.9375 11.75 14.25V14.875C11.75 15.2266 12.0234 15.5 12.375 15.5H13L13.8203 28.7422C13.8594 29.7188 14.7188 30.5 15.6953 30.5H25.2656C26.2422 30.5 27.1016 29.7188 27.1406 28.7422L28 15.5H28.625C28.9375 15.5 29.25 15.2266 29.25 14.875V14.25C29.25 13.9375 28.9375 13.625 28.625 13.625ZM18.5078 12.375H22.4531L23.1953 13.625H17.7656L18.5078 12.375ZM25.2656 28.625H15.6953L14.875 15.5H26.0859L25.2656 28.625Z" fill="#191919"/>
</svg>
