<svg width="40" height="40" viewBox="0 0 40 40" fill="none" xmlns="http://www.w3.org/2000/svg">
<rect width="40" height="40" rx="20" fill="white"/>
<path d="M27.5 10.5H12.5C11.0938 10.5 10 11.6328 10 13V24.25C10 25.6562 11.0938 26.75 12.5 26.75H16.25V30.0312C16.25 30.3438 16.4453 30.5 16.7188 30.5C16.7969 30.5 16.875 30.5 16.9922 30.4219L21.875 26.75H27.5C28.8672 26.75 30 25.6562 30 24.25V13C30 11.6328 28.8672 10.5 27.5 10.5ZM28.125 24.25C28.125 24.6016 27.8125 24.875 27.5 24.875H21.25L20.7422 25.2656L18.125 27.2188V24.875H12.5C12.1484 24.875 11.875 24.6016 11.875 24.25V13C11.875 12.6875 12.1484 12.375 12.5 12.375H27.5C27.8125 12.375 28.125 12.6875 28.125 13V24.25Z" fill="#191919"/>
</svg>
