<svg width="20" height="21" viewBox="0 0 20 21" fill="none" xmlns="http://www.w3.org/2000/svg">
<path d="M17.5 0.5H2.5C1.09375 0.5 0 1.63281 0 3V14.25C0 15.6562 1.09375 16.75 2.5 16.75H6.25V20.0312C6.25 20.3438 6.44531 20.5 6.71875 20.5C6.79688 20.5 6.875 20.5 6.99219 20.4219L11.875 16.75H17.5C18.8672 16.75 20 15.6562 20 14.25V3C20 1.63281 18.8672 0.5 17.5 0.5ZM18.125 14.25C18.125 14.6016 17.8125 14.875 17.5 14.875H11.25L10.7422 15.2656L8.125 17.2188V14.875H2.5C2.14844 14.875 1.875 14.6016 1.875 14.25V3C1.875 2.6875 2.14844 2.375 2.5 2.375H17.5C17.8125 2.375 18.125 2.6875 18.125 3V14.25Z" fill="#191919"/>
</svg>
