<svg width="41" height="40" viewBox="0 0 41 40" fill="none" xmlns="http://www.w3.org/2000/svg">
<path d="M32.875 24.25H31V13C31 11.6328 29.8672 10.5 28.5 10.5H13.5C12.0938 10.5 11 11.6328 11 13V24.25H9.125C8.77344 24.25 8.5 24.5625 8.5 24.875V26.75C8.5 28.8203 10.1797 30.5 12.25 30.5H29.75C31.7812 30.5 33.5 28.8203 33.5 26.75V24.875C33.5 24.5625 33.1875 24.25 32.875 24.25ZM12.875 13C12.875 12.6875 13.1484 12.375 13.5 12.375H28.5C28.8125 12.375 29.125 12.6875 29.125 13V24.25H12.875V13ZM31.625 26.75C31.625 27.8047 30.7656 28.625 29.75 28.625H12.25C11.1953 28.625 10.375 27.8047 10.375 26.75V26.125H17.4062C17.6406 26.5156 18.0312 26.75 18.5 26.75H23.5C23.9297 26.75 24.3203 26.5156 24.5547 26.125H31.625V26.75Z" fill="#191919"/>
</svg>
