<svg width="21" height="22" viewBox="0 0 21 22" fill="none" xmlns="http://www.w3.org/2000/svg">
<path d="M17.6875 0.773438L1.4375 10.1484C0.0703125 10.9297 0.1875 12.9219 1.63281 13.5078L6.125 15.3438V18.625C6.125 20.4609 8.42969 21.2031 9.48438 19.7578L11.2031 17.4531L15.5781 19.25C15.8125 19.3672 16.0469 19.4062 16.2812 19.4062C16.5938 19.4062 16.9062 19.3281 17.2188 19.1719C17.7266 18.8594 18.0391 18.3906 18.1562 17.8047L20.4609 2.6875C20.6953 1.125 19.0156 -0.0078125 17.6875 0.773438ZM8 18.625V16.125L9.40625 16.7109L8 18.625ZM16.2812 17.5312L10.2656 15.0312L15.7734 7.14062C16.1641 6.51562 15.3828 5.8125 14.8359 6.32031L6.55469 13.5078L2.375 11.75L18.625 2.375L16.2812 17.5312Z" fill="#767676"/>
</svg>
