<svg width="41" height="40" viewBox="0 0 41 40" fill="none" xmlns="http://www.w3.org/2000/svg">
<rect x="0.5" width="40" height="40" rx="20" fill="white"/>
<path d="M20.5 10.8125C15.1484 10.8125 10.8125 15.1484 10.8125 20.5C10.8125 25.8516 15.1484 30.1875 20.5 30.1875C25.8516 30.1875 30.1875 25.8516 30.1875 20.5C30.1875 15.1484 25.8516 10.8125 20.5 10.8125ZM20.5 28.3125C16.1641 28.3125 12.6875 24.8359 12.6875 20.5C12.6875 16.2031 16.1641 12.6875 20.5 12.6875C24.7969 12.6875 28.3125 16.2031 28.3125 20.5C28.3125 24.8359 24.7969 28.3125 20.5 28.3125ZM17.375 19.875C18.0391 19.875 18.625 19.3281 18.625 18.625C18.625 17.9609 18.0391 17.375 17.375 17.375C16.6719 17.375 16.125 17.9609 16.125 18.625C16.125 19.3281 16.6719 19.875 17.375 19.875ZM23.625 19.875C24.2891 19.875 24.875 19.3281 24.875 18.625C24.875 17.9609 24.2891 17.375 23.625 17.375C22.9219 17.375 22.375 17.9609 22.375 18.625C22.375 19.3281 22.9219 19.875 23.625 19.875ZM23.7812 22.7266C22.9609 23.7031 21.75 24.25 20.5 24.25C19.2109 24.25 18 23.7031 17.2188 22.7266C16.8672 22.3359 16.2812 22.2969 15.8906 22.6094C15.5 22.9219 15.4219 23.5469 15.7734 23.9375C16.9453 25.3438 18.6641 26.125 20.5 26.125C22.2969 26.125 24.0156 25.3438 25.1875 23.9375C25.5391 23.5469 25.5 22.9219 25.0703 22.6094C24.6797 22.2969 24.0938 22.3359 23.7812 22.7266Z" fill="#191919"/>
</svg>
